<svg xmlns="http://www.w3.org/2000/svg" width="24.86" height="17.293" viewBox="0 0 24.86 17.293">
  <path id="noun-toolbox-1376938-F3735B" d="M205.056,316.032v.36H202.39v-1.477a1.354,1.354,0,0,0-1.333-1.333h-5.224a1.354,1.354,0,0,0-1.333,1.333v1.477h-2.666v-.36h1.081v-1.225a2.814,2.814,0,0,1,2.81-2.81h5.4a2.814,2.814,0,0,1,2.81,2.81v1.225Zm1.117,5.512v1.225a.723.723,0,0,1-.721.721h-1.045a.723.723,0,0,1-.721-.721v-1.225H193.239v1.225a.723.723,0,0,1-.721.721h-1.045a.723.723,0,0,1-.721-.721v-1.225h-4.612v6.2a1.538,1.538,0,0,0,1.549,1.549h21.473a1.538,1.538,0,0,0,1.549-1.549v-6.2Zm3.134-4.972H187.546A1.538,1.538,0,0,0,186,318.122V320.9h4.72V320.1a.723.723,0,0,1,.721-.721h1.045a.723.723,0,0,1,.721.721v.793h10.448V320.1a.723.723,0,0,1,.721-.721h1.045a.723.723,0,0,1,.721.721v.793h4.72v-2.774a1.537,1.537,0,0,0-1.549-1.549Zm-16.429,6.161V320.1a.4.4,0,0,0-.4-.4h-1.045a.4.4,0,0,0-.4.4v2.63a.4.4,0,0,0,.4.4h1.045A.4.4,0,0,0,192.878,322.733Zm12.97,0V320.1a.4.4,0,0,0-.4-.4h-1.045a.4.4,0,0,0-.4.4v2.63a.4.4,0,0,0,.4.4h1.045A.4.4,0,0,0,205.848,322.733Z" transform="translate(-185.997 -311.997)" fill="#f3735b"/>
</svg>
