<svg xmlns="http://www.w3.org/2000/svg" width="20.124" height="21.682" viewBox="0 0 20.124 21.682">
  <g id="Group_167" data-name="Group 167" transform="translate(-77.911 -37.5)">
    <path id="Path_38" data-name="Path 38" d="M294.572,37.5a6,6,0,1,0,6,6A6.013,6.013,0,0,0,294.572,37.5Z" transform="translate(-206.599)" fill="#fff"/>
    <path id="Path_39" data-name="Path 39" d="M82.915,768.03a4.491,4.491,0,0,0-3.623,2.107,8.4,8.4,0,0,0-1.382,4.775h0a.723.723,0,0,0,.72.72H97.315a.723.723,0,0,0,.72-.72,8.4,8.4,0,0,0-1.376-4.775,4.5,4.5,0,0,0-3.628-2.107Z" transform="translate(0 -716.451)" fill="#fff"/>
  </g>
</svg>
