<svg xmlns="http://www.w3.org/2000/svg" width="69.235" height="69.235" viewBox="0 0 69.235 69.235">
  <path id="noun-key-5227169-F3735B" d="M303.05,309.881,276.715,336.1a2.923,2.923,0,0,0-.006,4.128l8.208,8.238a2.892,2.892,0,0,0,4.1,0l2.052-2.06,2.055,2.06a2.891,2.891,0,0,0,4.1,0l8.208-8.238a2.917,2.917,0,0,0,0-4.119l-2.037-2.045,11.935-11.809a21.882,21.882,0,1,0-12.289-12.378ZM331.03,294.2a10.154,10.154,0,1,0,0,14.387A10.117,10.117,0,0,0,331.03,294.2Z" transform="translate(-275.859 -280.089)" fill="#f9f9fa" fill-rule="evenodd"/>
</svg>
