<svg xmlns="http://www.w3.org/2000/svg" width="39.063" height="70.313" viewBox="0 0 39.063 70.313">
  <path id="noun-phone-cell-1027118-F3735B" d="M351.915,160.542v-3.789a6.815,6.815,0,0,1,2.02-4.819,6.9,6.9,0,0,1,4.857-2h25.295a6.923,6.923,0,0,1,4.857,2,6.792,6.792,0,0,1,2.02,4.819v3.789Zm23.51-6.261a.582.582,0,0,0-.581-.577h-6.822a.577.577,0,1,0,0,1.153h6.822A.582.582,0,0,0,375.425,154.281Zm15.526,7.414v44.362H351.915V161.7Zm0,45.516v6.206a6.815,6.815,0,0,1-2.02,4.819,6.9,6.9,0,0,1-4.857,2H358.779a6.923,6.923,0,0,1-4.857-2,6.792,6.792,0,0,1-2.02-4.819v-6.206Zm-19.511,3.68a2.86,2.86,0,0,0-2.02.838,2.8,2.8,0,0,0,0,4.009,2.856,2.856,0,0,0,4.041,0,2.8,2.8,0,0,0,0-4.009A2.86,2.86,0,0,0,371.44,210.891Z" transform="translate(-351.902 -149.929)" fill="#f9f9fa" fill-rule="evenodd"/>
</svg>
