<svg xmlns="http://www.w3.org/2000/svg" width="73.001" height="68.635" viewBox="0 0 73.001 68.635">
  <g id="Group_151" data-name="Group 151" transform="translate(-20651 2524.72)">
    <path id="Path_44" data-name="Path 44" d="M146.238,264.33H78.411a2.594,2.594,0,0,0-2.587,2.587v50.03a2.594,2.594,0,0,0,2.587,2.587H103.02v8.259H95.366a2.587,2.587,0,0,0,0,5.173h33.91a2.587,2.587,0,0,0,0-5.173h-7.653v-8.259h24.615a2.594,2.594,0,0,0,2.587-2.587v-50.03a2.594,2.594,0,0,0-2.587-2.587Zm-38.045,63.463v-8.256h8.256v8.256Z" transform="translate(20575.176 -2789.05)" fill="#f9f9fa"/>
  </g>
</svg>
