<svg xmlns="http://www.w3.org/2000/svg" width="73.116" height="64.483" viewBox="0 0 73.116 64.483">
  <g id="noun-telephone-1709362-F3735B" transform="translate(-26.292 -93.982)">
    <path id="Path_45" data-name="Path 45" d="M182.957,143.791a4.544,4.544,0,0,1-4.548,4.543h-9.657a4.541,4.541,0,0,1-4.545-4.543V98.527a4.545,4.545,0,0,1,4.545-4.545h9.657a4.547,4.547,0,0,1,4.548,4.545Z" transform="translate(-129.127 0)" fill="#f9f9fa"/>
    <path id="Path_46" data-name="Path 46" d="M636.373,566.611a2.61,2.61,0,1,1-2.61-2.61,2.611,2.611,0,0,1,2.61,2.61" transform="translate(-566.32 -440.071)" fill="#f9f9fa"/>
    <path id="Path_47" data-name="Path 47" d="M635.243,715.961a2.61,2.61,0,1,1-2.61-2.61,2.61,2.61,0,0,1,2.61,2.61" transform="translate(-565.262 -579.905)" fill="#f9f9fa"/>
    <path id="Path_48" data-name="Path 48" d="M782,865.388a2.609,2.609,0,1,1-2.609-2.609A2.609,2.609,0,0,1,782,865.388" transform="translate(-702.673 -719.812)" fill="#f9f9fa"/>
    <path id="Path_49" data-name="Path 49" d="M780.857,715.961a2.61,2.61,0,1,1-2.61-2.61,2.61,2.61,0,0,1,2.61,2.61" transform="translate(-701.598 -579.905)" fill="#f9f9fa"/>
    <path id="Path_50" data-name="Path 50" d="M926.487,417.215a2.61,2.61,0,1,1-2.61-2.61,2.61,2.61,0,0,1,2.61,2.61" transform="translate(-837.949 -300.194)" fill="#f9f9fa"/>
    <path id="Path_51" data-name="Path 51" d="M780.857,417.215a2.61,2.61,0,1,1-2.61-2.61,2.61,2.61,0,0,1,2.61,2.61" transform="translate(-701.598 -300.194)" fill="#f9f9fa"/>
    <path id="Path_52" data-name="Path 52" d="M635.243,417.215a2.61,2.61,0,1,1-2.61-2.61,2.61,2.61,0,0,1,2.61,2.61" transform="translate(-565.262 -300.194)" fill="#f9f9fa"/>
    <path id="Path_53" data-name="Path 53" d="M89.1,276.82H55.065v38.546a5.544,5.544,0,0,1-5.537,5.537H39.386a5.543,5.543,0,0,1-5.537-5.537V277.23a10.337,10.337,0,0,0-7.556,9.9v32.213A10.321,10.321,0,0,0,36.6,329.653H89.1a10.32,10.32,0,0,0,10.309-10.309V287.13A10.324,10.324,0,0,0,89.1,276.82Zm-3.169,7.25a4.139,4.139,0,1,1-4.138,4.14A4.145,4.145,0,0,1,85.93,284.07Zm-9.279,0a4.139,4.139,0,1,1-4.138,4.14A4.145,4.145,0,0,1,76.651,284.07Zm-9.278,0a4.139,4.139,0,1,1-4.138,4.14A4.145,4.145,0,0,1,67.373,284.07Zm0,27.315a4.139,4.139,0,1,1,4.14-4.138A4.143,4.143,0,0,1,67.373,311.385Zm.072-9.518a4.139,4.139,0,1,1,4.141-4.139A4.144,4.144,0,0,1,67.445,301.867Zm9.206,1.24a4.139,4.139,0,1,1-4.138,4.14A4.146,4.146,0,0,1,76.651,303.107Zm.072,17.8a4.138,4.138,0,1,1,4.14-4.138A4.143,4.143,0,0,1,76.722,320.9Zm0-19.035a4.139,4.139,0,1,1,4.138-4.139A4.146,4.146,0,0,1,76.724,301.867Zm9.206,9.518a4.139,4.139,0,1,1,4.14-4.138A4.143,4.143,0,0,1,85.93,311.385ZM86,301.867a4.139,4.139,0,1,1,4.14-4.139A4.144,4.144,0,0,1,86,301.867Z" transform="translate(0 -171.188)" fill="#f9f9fa"/>
    <path id="Path_54" data-name="Path 54" d="M782.007,566.611A2.61,2.61,0,1,1,779.4,564a2.61,2.61,0,0,1,2.61,2.61" transform="translate(-702.675 -440.071)" fill="#f9f9fa"/>
    <path id="Path_55" data-name="Path 55" d="M927.683,566.611a2.61,2.61,0,1,1-2.61-2.61,2.61,2.61,0,0,1,2.61,2.61" transform="translate(-839.069 -440.071)" fill="#f9f9fa"/>
    <path id="Path_56" data-name="Path 56" d="M926.487,715.961a2.61,2.61,0,1,1-2.61-2.61,2.61,2.61,0,0,1,2.61,2.61" transform="translate(-837.949 -579.905)" fill="#f9f9fa"/>
  </g>
</svg>
