<svg xmlns="http://www.w3.org/2000/svg" width="113.083" height="117.651" viewBox="0 0 113.083 117.651">
  <path id="noun-office-5221460-F3735B" d="M240.205,172.8a3.775,3.775,0,0,1-3.774,3.774h-7.3a3.775,3.775,0,0,1-3.774-3.774v-7.3a3.774,3.774,0,0,1,3.774-3.775h7.3a3.774,3.774,0,0,1,3.774,3.775Zm0,14.973A3.774,3.774,0,0,0,236.431,184h-7.3a3.774,3.774,0,0,0-3.774,3.775v7.3a3.774,3.774,0,0,0,3.774,3.773h7.3a3.774,3.774,0,0,0,3.774-3.773Zm0,22.844a3.774,3.774,0,0,0-3.774-3.775h-7.3a3.774,3.774,0,0,0-3.774,3.775v7.3a3.773,3.773,0,0,0,3.774,3.774h7.3a3.773,3.773,0,0,0,3.774-3.774Zm-34.268,7.424a3.775,3.775,0,0,0-3.775-3.774h-7.3a3.775,3.775,0,0,0-3.775,3.774v7.3a3.774,3.774,0,0,0,3.775,3.773h7.3a3.774,3.774,0,0,0,3.775-3.773Zm-37.694,0a3.775,3.775,0,0,0-3.775-3.774h-7.3a3.774,3.774,0,0,0-3.774,3.774v7.3a3.773,3.773,0,0,0,3.774,3.773h7.3a3.774,3.774,0,0,0,3.775-3.773Zm37.694-18.274a3.775,3.775,0,0,0-3.775-3.775h-7.3a3.775,3.775,0,0,0-3.775,3.775v7.3a3.773,3.773,0,0,0,3.775,3.773h7.3a3.773,3.773,0,0,0,3.775-3.773Zm-18.847,0a3.774,3.774,0,0,0-3.774-3.775h-7.3a3.774,3.774,0,0,0-3.774,3.775v7.3a3.773,3.773,0,0,0,3.774,3.773h7.3a3.774,3.774,0,0,0,3.774-3.773Zm-18.847,0a3.775,3.775,0,0,0-3.775-3.775h-7.3a3.774,3.774,0,0,0-3.774,3.775v7.3a3.773,3.773,0,0,0,3.774,3.773h7.3a3.774,3.774,0,0,0,3.775-3.773Zm37.694-19.417a3.774,3.774,0,0,0-3.775-3.775h-7.3a3.774,3.774,0,0,0-3.775,3.775v7.3a3.774,3.774,0,0,0,3.775,3.773h7.3a3.774,3.774,0,0,0,3.775-3.773Zm-18.847,0a3.774,3.774,0,0,0-3.774-3.775h-7.3a3.774,3.774,0,0,0-3.774,3.775v7.3a3.773,3.773,0,0,0,3.774,3.773h7.3a3.774,3.774,0,0,0,3.774-3.773Zm-18.847,0a3.774,3.774,0,0,0-3.775-3.775h-7.3a3.774,3.774,0,0,0-3.774,3.775v7.3a3.774,3.774,0,0,0,3.774,3.773h7.3a3.774,3.774,0,0,0,3.775-3.773Zm48.546-37.514h0a3.726,3.726,0,0,0-3.518-3.956H205.93a4.123,4.123,0,0,0-3.99,3.956v7.342a3.782,3.782,0,0,0,3.99,3.551h7.341a3.377,3.377,0,0,0,3.518-3.551Zm23.417,0h0a4.024,4.024,0,0,0-3.878-3.956h-7.342a3.814,3.814,0,0,0-3.629,3.956v7.342a3.468,3.468,0,0,0,3.629,3.551h7.342a3.681,3.681,0,0,0,3.878-3.551Zm11.712-19.375c2.086,0,3.138,2.151,3.138,4.236V241.109H141.973v-71.9c0-2.086,2.184-3.488,4.27-3.488h40.85V127.695a4.81,4.81,0,0,1,4.44-4.237Zm-46.13,109.656h4.148V173.146H149.4v59.968h22.845V217.323c0-1.53,2.247-3.055,3.773-3.055h9.214c1.53,0,1.862,1.526,1.862,3.055v15.792ZM247.63,131.455H195.087v34.268h19.089c2.086,0,3.184,1.4,3.184,3.488v63.9h30.269Z" transform="translate(-141.973 -123.458)" fill="#8dcc95" opacity="0.69"/>
</svg>
