<svg xmlns="http://www.w3.org/2000/svg" xmlns:xlink="http://www.w3.org/1999/xlink" width="22.107" height="23" viewBox="0 0 22.107 23">
  <defs>
    <clipPath id="clip-path">
      <rect width="22.107" height="23" fill="none"/>
    </clipPath>
  </defs>
  <g id="Repeat_Grid_1" data-name="Repeat Grid 1" clip-path="url(#clip-path)">
    <g transform="translate(-6.912 -420)">
      <path id="noun-office-5221460-F3735B" d="M161.177,133.1a.738.738,0,0,1-.738.738h-1.427a.738.738,0,0,1-.738-.738v-1.427a.738.738,0,0,1,.738-.738h1.427a.738.738,0,0,1,.738.738Zm0,2.927a.738.738,0,0,0-.738-.738h-1.427a.738.738,0,0,0-.738.738v1.427a.738.738,0,0,0,.738.738h1.427a.738.738,0,0,0,.738-.738Zm0,4.466a.738.738,0,0,0-.738-.738h-1.427a.738.738,0,0,0-.738.738v1.427a.738.738,0,0,0,.738.738h1.427a.738.738,0,0,0,.738-.738Zm-6.7,1.451a.738.738,0,0,0-.738-.738h-1.427a.738.738,0,0,0-.738.738v1.428a.738.738,0,0,0,.738.738h1.427a.738.738,0,0,0,.738-.738Zm-7.369,0a.738.738,0,0,0-.738-.738h-1.427a.738.738,0,0,0-.738.738v1.428a.738.738,0,0,0,.738.738h1.427a.738.738,0,0,0,.738-.738Zm7.369-3.573a.738.738,0,0,0-.738-.738h-1.427a.738.738,0,0,0-.738.738V139.8a.738.738,0,0,0,.738.738h1.427a.738.738,0,0,0,.738-.738Zm-3.684,0a.738.738,0,0,0-.738-.738h-1.427a.738.738,0,0,0-.738.738V139.8a.738.738,0,0,0,.738.738h1.427a.738.738,0,0,0,.738-.738Zm-3.684,0a.738.738,0,0,0-.738-.738h-1.427a.738.738,0,0,0-.738.738V139.8a.738.738,0,0,0,.738.738h1.427a.738.738,0,0,0,.738-.738Zm7.369-3.8a.738.738,0,0,0-.738-.738h-1.427a.738.738,0,0,0-.738.738v1.427a.738.738,0,0,0,.738.738h1.427a.738.738,0,0,0,.738-.738Zm-3.684,0a.738.738,0,0,0-.738-.738h-1.427a.738.738,0,0,0-.738.738v1.427a.738.738,0,0,0,.738.738h1.427a.738.738,0,0,0,.738-.738Zm-3.684,0a.738.738,0,0,0-.738-.738h-1.427a.738.738,0,0,0-.738.738v1.427a.738.738,0,0,0,.738.738h1.427a.738.738,0,0,0,.738-.738Zm9.49-7.334h0a.728.728,0,0,0-.688-.773h-1.435a.806.806,0,0,0-.78.773v1.435a.739.739,0,0,0,.78.694h1.435a.66.66,0,0,0,.688-.694Zm4.578,0h0a.787.787,0,0,0-.758-.773h-1.435a.746.746,0,0,0-.71.773v1.435a.678.678,0,0,0,.71.694h1.435a.72.72,0,0,0,.758-.694Zm2.29-3.788c.408,0,.613.42.613.828v22.172H141.973V132.4a.782.782,0,0,1,.835-.682h7.986v-7.434a.94.94,0,0,1,.868-.828ZM154.448,144.9h.811V133.172H143.424V144.9h4.466v-3.087c0-.3.439-.6.738-.6h1.8c.3,0,.364.3.364.6V144.9Zm8.18-19.874H152.356v6.7h3.732a.6.6,0,0,1,.623.682v12.493h5.917Z" transform="translate(-135.061 296.542)" fill="#f9f9fa" opacity="0.69"/>
    </g>
  </g>
</svg>
