<svg xmlns="http://www.w3.org/2000/svg" width="106.739" height="115" viewBox="0 0 106.739 115">
  <g id="noun-user-5218080-F3735B" transform="translate(-77.911 -37.5)" opacity="0.69">
    <path id="Path_38" data-name="Path 38" d="M320.405,37.5A31.834,31.834,0,1,0,352.24,69.334,31.894,31.894,0,0,0,320.405,37.5Z" transform="translate(-189.125 0)" fill="#f3735b"/>
    <path id="Path_39" data-name="Path 39" d="M104.454,768.03c-7.769,0-14.586,4.519-19.214,11.176s-7.329,15.562-7.329,25.326h0a3.834,3.834,0,0,0,3.821,3.82h99.1a3.834,3.834,0,0,0,3.82-3.82c0-9.764-2.673-18.668-7.3-25.326s-11.472-11.176-19.242-11.176Z" transform="translate(0 -655.853)" fill="#f3735b"/>
  </g>
</svg>
