<svg xmlns="http://www.w3.org/2000/svg" width="224.198" height="237.401" viewBox="0 0 224.198 237.401">
  <g id="Group_5" data-name="Group 5" transform="translate(0 23)">
    <g id="noun-cycle-21709-F3735B" transform="translate(0 0)">
      <path id="Path_20" data-name="Path 20" d="M232.839,630.474a8.247,8.247,0,0,0-9.232,7.063,88.735,88.735,0,0,1-167.271,27.9l15.278-3.3L38.587,625.715,23.561,672.527l16.273-3.519a105.87,105.87,0,0,0,95.829,61.844c52.5,0,97.31-39.183,104.234-91.145a8.218,8.218,0,0,0-7.058-9.233Z" transform="translate(-23.561 -516.45)" fill="#f3725b"/>
      <path id="Path_21" data-name="Path 21" d="M69.241,170.043a8.2,8.2,0,0,0,9.053-7.285,88.733,88.733,0,0,1,167.535-30.091l-15.28,3.306,33.026,36.415L278.6,125.575,262.326,129.1A105.166,105.166,0,0,0,61.954,160.988a8.215,8.215,0,0,0,7.285,9.053Z" transform="translate(-54.404 -67.251)" fill="#f3725b"/>
    </g>
    <text id="_3" data-name="3" transform="translate(111.303 153)" fill="#f3735b" font-size="163" font-family="SegoeUI-Bold, Segoe UI" font-weight="700" letter-spacing="0.08em"><tspan x="-46.878" y="0">3</tspan></text>
  </g>
</svg>
