<svg id="Logo" xmlns="http://www.w3.org/2000/svg" width="84.4" height="74.15" viewBox="0 0 84.4 74.15">
  <path id="Path_19" data-name="Path 19" d="M224.739,334.877l1.073-.089a19.171,19.171,0,0,0,11.867-5,14.877,14.877,0,0,0,4.861-10.734,13.986,13.986,0,0,0-1.409-6.252,15.7,15.7,0,0,0-4.124-5.246,18.279,18.279,0,0,0-6.158-3.372,20.144,20.144,0,0,0-7.207-.941,23.7,23.7,0,0,0-9.473-9.471,28.7,28.7,0,0,0-27.562,0,23.7,23.7,0,0,0-9.473,9.471h-.945a20,20,0,0,0-6.9,1.2,18.262,18.262,0,0,0-5.862,3.428,16.021,16.021,0,0,0-3.916,5.142,14.111,14.111,0,0,0,0,12.126,16.02,16.02,0,0,0,3.916,5.142,18.261,18.261,0,0,0,5.862,3.428,20,20,0,0,0,6.9,1.2H184v8.964h-7.031a2.837,2.837,0,0,0-.9.153,2.511,2.511,0,0,0-.761.451,2.132,2.132,0,0,0-.5.668,1.8,1.8,0,0,0-.176.8v6.437a6.928,6.928,0,0,0-3.724,2.7,5.558,5.558,0,0,0-.865,4.16,6.005,6.005,0,0,0,2.4,3.677,7.769,7.769,0,0,0,9.057,0,6.029,6.029,0,0,0,2.4-3.677,5.517,5.517,0,0,0-.865-4.16,6.9,6.9,0,0,0-3.716-2.7v-4.4h7.023a2.559,2.559,0,0,0,.9-.153,2.455,2.455,0,0,0,.8-.443,2.156,2.156,0,0,0,.512-.668,1.948,1.948,0,0,0,.176-.8V334.893h9.337v17.461a6.928,6.928,0,0,0-3.724,2.7,5.55,5.55,0,0,0-.841,4.192,5.965,5.965,0,0,0,2.4,3.677,7.769,7.769,0,0,0,9.057,0,6.029,6.029,0,0,0,2.4-3.677,5.517,5.517,0,0,0-.865-4.16,6.872,6.872,0,0,0-3.716-2.7V334.925h9.369v11.024a1.826,1.826,0,0,0,.176.8,2.043,2.043,0,0,0,.512.668,2.511,2.511,0,0,0,.753.443,2.631,2.631,0,0,0,.9.153h7.031V352.4a6.872,6.872,0,0,0-3.716,2.7,5.517,5.517,0,0,0-.865,4.16,6.029,6.029,0,0,0,2.4,3.677,7.769,7.769,0,0,0,9.057,0,6.029,6.029,0,0,0,2.4-3.677,5.517,5.517,0,0,0-.865-4.16,6.872,6.872,0,0,0-3.716-2.7v-6.437a1.923,1.923,0,0,0-.176-.8,2.043,2.043,0,0,0-.513-.668,2.328,2.328,0,0,0-.761-.451,2.751,2.751,0,0,0-.889-.153h-7.031v-9ZM177,360.2a2.569,2.569,0,0,1-1.3-.346,2.128,2.128,0,0,1-.857-.925,1.835,1.835,0,0,1-.136-1.183,2.046,2.046,0,0,1,.641-1.054,2.485,2.485,0,0,1,1.2-.563,2.654,2.654,0,0,1,1.353.113,2.4,2.4,0,0,1,1.057.756,1.9,1.9,0,0,1,.392,1.143,1.943,1.943,0,0,1-.689,1.456,2.515,2.515,0,0,1-1.666.6Zm23.422,0a2.585,2.585,0,0,1-1.3-.346,2.128,2.128,0,0,1-.865-.925,1.778,1.778,0,0,1-.128-1.183,1.941,1.941,0,0,1,.641-1.054,2.4,2.4,0,0,1,1.193-.563,2.655,2.655,0,0,1,1.353.113,2.4,2.4,0,0,1,1.057.756,1.9,1.9,0,0,1,.392,1.143,1.943,1.943,0,0,1-.689,1.456,2.515,2.515,0,0,1-1.658.6Zm23.422,0a2.585,2.585,0,0,1-1.3-.346,2.128,2.128,0,0,1-.865-.925,1.778,1.778,0,0,1-.128-1.183,1.941,1.941,0,0,1,.641-1.054,2.461,2.461,0,0,1,1.193-.563,2.654,2.654,0,0,1,1.353.113A2.33,2.33,0,0,1,225.8,357a1.9,1.9,0,0,1,.392,1.143,1.943,1.943,0,0,1-.689,1.456A2.515,2.515,0,0,1,223.842,360.2Zm-47.621-29.427a15,15,0,0,1-5.109-.885,13.6,13.6,0,0,1-4.34-2.543,11.734,11.734,0,0,1-2.9-3.806,10.4,10.4,0,0,1,0-8.972,11.734,11.734,0,0,1,2.9-3.806,13.47,13.47,0,0,1,4.34-2.543,15,15,0,0,1,5.109-.885,14.347,14.347,0,0,1,2.042.193,2.647,2.647,0,0,0,1.537-.249,2.192,2.192,0,0,0,1.009-1.046,19.087,19.087,0,0,1,7.7-8.61,23.46,23.46,0,0,1,23.815,0,19.063,19.063,0,0,1,7.711,8.61,2.407,2.407,0,0,0,1.1,1.014,2.854,2.854,0,0,0,1.6.258,14.841,14.841,0,0,1,1.8-.161,14.37,14.37,0,0,1,9.273,3.275,11.066,11.066,0,0,1,4.06,8.047,10.873,10.873,0,0,1-3.435,8.24,14.059,14.059,0,0,1-9,3.814Z" transform="translate(-158.14 -290.25)" fill="#f9f9fa"/>
</svg>
