<svg xmlns="http://www.w3.org/2000/svg" width="214.396" height="214.401" viewBox="0 0 214.396 214.401">
  <g id="Group_21" data-name="Group 21" transform="translate(-140 -2224)">
    <g id="Group_20" data-name="Group 20" transform="translate(140 2224)">
      <path id="Path_22" data-name="Path 22" d="M954.493,312.828a100.145,100.145,0,0,1-8.253,112.3,11.963,11.963,0,0,0-5.99-1.643,12.1,12.1,0,1,0,12.1,12.1,11.948,11.948,0,0,0-1.293-5.339,107.179,107.179,0,0,0,9.418-120.879Z" transform="translate(-760.432 -255.775)" fill="#f3725b"/>
      <path id="Path_23" data-name="Path 23" d="M225.347,967.945a100.328,100.328,0,0,1-62.161-21.674,11.957,11.957,0,0,0,1.646-5.99,12.1,12.1,0,1,0-12.1,12.1,11.951,11.951,0,0,0,5.339-1.293,107.181,107.181,0,0,0,120.879,9.418l-3.458-5.986a100.192,100.192,0,0,1-50.142,13.421Z" transform="translate(-118.151 -760.458)" fill="#f3725b"/>
      <path id="Path_24" data-name="Path 24" d="M39.1,275.489a100.144,100.144,0,0,1,8.254-112.3,11.957,11.957,0,0,0,5.99,1.646,12.1,12.1,0,1,0-12.1-12.1,11.949,11.949,0,0,0,1.293,5.339,107.18,107.18,0,0,0-9.418,120.879Z" transform="translate(-18.761 -118.152)" fill="#f3725b"/>
      <path id="Path_25" data-name="Path 25" d="M435.589,65.447a12.1,12.1,0,1,0,0-24.206,11.95,11.95,0,0,0-5.339,1.293,107.18,107.18,0,0,0-120.879-9.418l3.458,5.986a100.144,100.144,0,0,1,112.3,8.254,11.957,11.957,0,0,0-1.646,5.99,12.1,12.1,0,0,0,12.1,12.1Z" transform="translate(-255.775 -18.766)" fill="#f3725b"/>
    </g>
    <g id="noun-hardware-4673479-F3735B" transform="translate(192.324 2276.324)">
      <path id="Path_26" data-name="Path 26" d="M180.483,75H78.907A3.906,3.906,0,0,0,75,78.907V129.7a3.906,3.906,0,0,0,3.907,3.907h46.882v7.814h-7.814a3.907,3.907,0,1,0,0,7.814h23.441a3.907,3.907,0,0,0,0-7.814H133.6V133.6h46.882a3.906,3.906,0,0,0,3.907-3.907V78.907A3.906,3.906,0,0,0,180.483,75Z" transform="translate(-75 -75)" fill="#f3725b"/>
      <path id="Path_27" data-name="Path 27" d="M180.483,825H78.907A3.906,3.906,0,0,0,75,828.907v23.441a3.906,3.906,0,0,0,3.907,3.907H180.483a3.906,3.906,0,0,0,3.907-3.907V828.907A3.906,3.906,0,0,0,180.483,825ZM133.6,844.534H90.627a3.907,3.907,0,0,1,0-7.814H133.6a3.907,3.907,0,0,1,0,7.814Zm11.839,0a3.907,3.907,0,0,1-.042-7.814h.042a3.907,3.907,0,0,1,0,7.814Zm11.72,0a3.907,3.907,0,0,1-.042-7.814h.042a3.907,3.907,0,0,1,0,7.814Zm11.72,0a3.907,3.907,0,0,1-.042-7.814h.042a3.907,3.907,0,0,1,0,7.814Z" transform="translate(-75 -746.864)" fill="#f3725b"/>
    </g>
  </g>
</svg>
