<svg xmlns="http://www.w3.org/2000/svg" width="214.401" height="214.401" viewBox="0 0 214.401 214.401">
  <g id="Group_167" data-name="Group 167" transform="translate(-1464.404 -2250)">
    <g id="noun-view-1061182-F3735B" transform="translate(1214.404 2000)">
      <path id="Path_32" data-name="Path 32" d="M265.046,313.944H250V250h60.183v15.046H265.046Z" fill="#f3725b"/>
      <path id="Path_33" data-name="Path 33" d="M822.683,813.944H762.5V798.9h45.137V750h15.046Z" transform="translate(-358.281 -349.543)" fill="#f3725b"/>
      <path id="Path_34" data-name="Path 34" d="M310.183,813.944H250V750h15.046v48.9h45.137Z" transform="translate(0 -349.543)" fill="#f3725b"/>
      <path id="Path_35" data-name="Path 35" d="M813.944,310.183H798.9V265.046H750V250h63.944Z" transform="translate(-349.543)" fill="#f3725b"/>
    </g>
    <path id="Path_36" data-name="Path 36" d="M435.382,401.26c19.025,0,34.769,15.745,34.769,34.112a35,35,0,0,1-34.769,34.769c-18.368,0-34.112-15.745-34.112-34.769C401.27,417,417.015,401.26,435.382,401.26Zm0,11.809a22.121,22.121,0,0,0-22.305,22.305c0,12.465,9.84,22.96,22.305,22.96a23.243,23.243,0,0,0,22.96-22.96C458.343,423.565,447.847,413.069,435.382,413.069Z" transform="translate(1132.677 1921.499)" fill="#f3725b"/>
    <path id="Path_37" data-name="Path 37" d="M193.507,316.461a126.9,126.9,0,0,0-28.865-27.553c-37.393-26.241-84.627-26.241-122.02,0-10.5,7.216-19.682,16.4-28.21,27.553,8.528,11.809,17.713,20.994,28.21,28.21,37.393,26.241,85.283,26.241,122.02,0A117.262,117.262,0,0,0,193.507,316.461ZM171.2,279.069c15.745,10.5,26.241,22.96,36.738,37.393-10.5,15.089-20.994,27.553-36.738,38.05-40.673,28.865-93.811,28.865-135.141,0-15.089-10.5-25.584-22.961-36.081-38.05,10.5-14.433,20.994-26.9,36.081-37.393,41.329-28.865,93.811-28.865,135.141,0Z" transform="translate(1464.424 2040.411)" fill="#f3725b"/>
  </g>
</svg>
