<svg xmlns="http://www.w3.org/2000/svg" width="214.763" height="214.401" viewBox="0 0 214.763 214.401">
  <g id="noun-list-1266198-F3735B" transform="translate(-5.999 -10.349)">
    <path id="Path_28" data-name="Path 28" d="M274.126,530.4h-5.212c-5.862,5.429-15.2,8.9-26.057,8.9s-20.194-3.474-26.057-8.9h-3.691C194,530.4,178.8,542.126,178.8,556.457H307.132c-.217-14.331-14.983-26.057-33.006-26.057Z" transform="translate(-141.533 -425.947)" fill="#f3725b"/>
    <path id="Path_29" data-name="Path 29" d="M357.851,116.4A38.651,38.651,0,1,0,396.5,155.051,38.737,38.737,0,0,0,357.851,116.4Zm0,68.617a30.026,30.026,0,0,1-29.966-29.966,40.375,40.375,0,0,1,.869-7.383,40.4,40.4,0,0,0,17.154,4.126,28.47,28.47,0,0,0,16.286-4.995c.652-.434,13.68-9.771,24.32-.434a27.608,27.608,0,0,1,1.3,8.469,30.072,30.072,0,0,1-29.966,30.183Z" transform="translate(-256.527 -86.861)" fill="#f3725b"/>
    <path id="Path_30" data-name="Path 30" d="M191.873,783.187h-21.28a10.67,10.67,0,0,0,2.171-6.514V707.621A10.425,10.425,0,0,0,162.342,697.2H40.091a10.425,10.425,0,0,0-10.423,10.423v69.051a11.7,11.7,0,0,0,2.171,6.514H7.953A1.946,1.946,0,0,0,6,785.141v.217a1.946,1.946,0,0,0,1.954,1.954H192.09a1.946,1.946,0,0,0,1.954-1.954v-.217a2.309,2.309,0,0,0-2.171-1.955Zm-90.548-29.748a11.943,11.943,0,0,1,0-23.886A11.774,11.774,0,0,1,113.267,741.5,12.048,12.048,0,0,1,101.325,753.438Z" transform="translate(0 -562.562)" fill="#f3725b"/>
    <path id="Path_31" data-name="Path 31" d="M871.916,36.922A35.312,35.312,0,1,0,818.5,75.356L809.162,89.47l37.349-9.554a35.334,35.334,0,0,0,25.406-42.994ZM828.053,57.116h-6.948v-4.56h6.948Zm0-10.857h-6.948V41.7h6.948Zm0-10.64h-6.948v-4.56h6.948Zm26.274,21.5H833.7v-4.56h20.629Zm0-10.857H833.7V41.7h20.629Zm0-10.64H833.7v-4.56h20.629Z" transform="translate(-652.249)" fill="#f3725b"/>
  </g>
</svg>
